<svg width="976" height="276" viewBox="0 0 976 276" fill="none" xmlns="http://www.w3.org/2000/svg">
  <path
    d="M109.968 0.000215173V37.9813L38.1719 37.9813V237.424H110.293V275.405H0V0L109.968 0.000215173Z"
    fill="white" />
  <rect x="188.607" y="39.8097" width="195.786" height="195.786" rx="97.8928" fill="#00D651" />
  <path
    d="M513.245 234.482C484.696 234.482 463.605 225.259 449.972 206.815C436.5 188.371 429.764 164.714 429.764 135.844C429.764 107.937 437.382 84.8411 452.619 66.557C467.855 48.1126 488.064 38.8904 513.245 38.8904C528.321 38.8904 542.515 42.8198 555.827 50.6788C569.139 58.5377 582.291 72.4913 595.282 92.5396C608.755 73.2933 621.746 59.5 634.256 51.1599C646.766 42.8198 661.602 38.6498 678.764 38.6498C706.51 38.6498 727.762 47.872 742.517 66.3164C757.273 84.7609 764.651 107.937 764.651 135.844C764.651 164.714 757.433 188.29 742.998 206.574C728.724 224.859 707.312 234.001 678.764 234.001C661.121 234.001 644.922 227.986 630.166 215.957C619.581 207.136 609.477 195.107 599.853 179.87C588.787 197.673 575.876 211.226 561.12 220.528C546.365 229.831 530.406 234.482 513.245 234.482ZM513.245 184.201C527.84 184.201 538.826 180.191 546.204 172.172C553.582 164.152 561.04 152.043 568.578 135.844C559.596 118.362 551.176 106.253 543.317 99.5165C535.619 92.7802 525.594 89.4121 513.245 89.4121C503.461 89.4121 495.121 93.7425 488.224 102.403C481.328 111.064 477.879 122.211 477.879 135.844C477.879 150.6 481.087 162.388 487.503 171.209C494.079 179.87 502.659 184.201 513.245 184.201ZM650.375 172.172C657.432 180.191 666.895 184.201 678.764 184.201C691.113 184.201 700.656 179.87 707.393 171.209C714.129 162.388 717.497 150.6 717.497 135.844C717.497 122.211 714.049 111.225 707.152 102.885C700.416 94.5445 690.953 90.3744 678.764 90.3744C666.735 90.3744 657.512 93.5822 651.097 99.9976C644.842 106.413 637.223 118.923 628.242 137.528C635.78 152.604 643.158 164.152 650.375 172.172Z"
    fill="#00D651" />
  <path
    d="M865.973 275.405V237.424L937.768 237.424V37.9815H865.648V0H975.94V275.405L865.973 275.405Z"
    fill="white" />
</svg>